<svg width="1024" height="1024" viewBox="0 0 1024 1024" fill="none" xmlns="http://www.w3.org/2000/svg">
  <defs>
    <linearGradient id="bg" x1="128" y1="96" x2="896" y2="928" gradientUnits="userSpaceOnUse">
      <stop stop-color="#0F172A" />
      <stop offset="1" stop-color="#1D4ED8" />
    </linearGradient>
    <linearGradient id="accent" x1="260" y1="248" x2="772" y2="760" gradientUnits="userSpaceOnUse">
      <stop stop-color="#22D3EE" />
      <stop offset="1" stop-color="#A78BFA" />
    </linearGradient>
  </defs>
  <rect x="96" y="96" width="832" height="832" rx="208" fill="url(#bg)" />
  <path d="M312 300C312 273.49 333.49 252 360 252H694C720.51 252 742 273.49 742 300V344H400V444H692C718.51 444 740 465.49 740 492V724C740 750.51 718.51 772 692 772H358C331.49 772 310 750.51 310 724V680H652V580H360C333.49 580 312 558.51 312 532V300Z" fill="white"/>
  <circle cx="650" cy="512" r="122" fill="url(#accent)" />
  <circle cx="650" cy="512" r="60" fill="#0F172A" />
  <path d="M286 800L392 694" stroke="#22D3EE" stroke-width="40" stroke-linecap="round" />
</svg>
